<svg xmlns="http://www.w3.org/2000/svg" width="219.586" height="219.586"><path data-name="Path 32" d="M205.909 82.7c2.6-1.551 3.052-3.156 3.052-4.782V63.751c0-4.629-5.472-5.854-21.3-8.73l-.071-.016a17.629 17.629 0 0 0-10.622-14.573 17.74 17.74 0 0 0-15.519-15.519 17.5 17.5 0 0 0-17.691-10.679A17.806 17.806 0 0 0 127.5 3.542a17.067 17.067 0 0 0-5.892 1.058 17.483 17.483 0 0 0-23.63 0 17.067 17.067 0 0 0-5.894-1.055 17.8 17.8 0 0 0-16.252 10.7 17.474 17.474 0 0 0-17.691 10.671 17.741 17.741 0 0 0-15.519 15.52A17.63 17.63 0 0 0 32 55.014l-.067.014c-15.833 2.865-21.308 4.093-21.308 8.723v14.167c0 1.626.457 3.23 3.045 4.778L.138 130.073l-.138.97c0 2.461 0 5.008 20.581 10.189a375.378 375.378 0 0 0 39.235 7.391 53.125 53.125 0 1 0 99.953 0 374.552 374.552 0 0 0 39.239-7.391c20.578-5.178 20.578-7.725 20.578-10.186zm2.539 34.637c-2.653.949-6.371 2.03-10.926 3.163l-9.032-33.123a105.561 105.561 0 0 0 10.784-2.146zm-61.108 11.575a53.04 53.04 0 0 0-75.092 0 439.503 439.503 0 0 1-25.809-3.485l5.937-35.609c16.942 1.449 37.3 2.267 57.418 2.267s40.475-.818 57.421-2.271l5.937 35.609a437.59 437.59 0 0 1-25.813 3.488zM17.709 76.859V70.3c4.735 1.579 12.569 3.085 25.553 4.488a656.022 656.022 0 0 0 66.532 3.134 656.022 656.022 0 0 0 66.532-3.134c12.984-1.4 20.818-2.912 25.553-4.488v6.563C195.984 80.372 159.647 85 109.793 85S23.6 80.372 17.709 76.859zm25.552 12.092c.655.069 1.371.13 2.041.2L39.459 124.2a344.18 344.18 0 0 1-10.49-2.1l9.2-33.738c1.608.198 3.294.393 5.092.589zM180.127 124.2l-5.843-35.052c.669-.067 1.385-.131 2.041-.2 1.8-.2 3.485-.391 5.089-.588l9.2 33.738q-4.843 1.059-10.487 2.102zm5.15-57.669a25.005 25.005 0 0 0 1.662-4.446c3.191.581 7.405 1.354 10.738 2.125a114.736 114.736 0 0 1-12.4 2.325zM46.967 46.414l2.755-.7-.088-2.845c-.01-.206-.033-.393-.05-.368a10.609 10.609 0 0 1 10.4-10.636l3.438.176.712-2.783a10.336 10.336 0 0 1 13.136-7.545l3.645 1.034.785-3.707a10.658 10.658 0 0 1 15.421-7.073l2.6 1.413 1.857-2.3a10.455 10.455 0 0 1 16.446 0l1.857 2.3 2.6-1.413a10.66 10.66 0 0 1 15.409 7.073l.785 3.708 3.645-1.034a10.34 10.34 0 0 1 13.14 7.545l.712 2.783 2.871-.119c.189-.007.377-.029.334-.047a10.606 10.606 0 0 1 10.635 10.381l-.149 3.46 2.755.7a10.6 10.6 0 0 1 8.009 10.25A17.326 17.326 0 0 1 175.96 67.7a632.434 632.434 0 0 1-66.167 3.13 630.781 630.781 0 0 1-66.269-3.146 17.39 17.39 0 0 1-4.565-11.021 10.6 10.6 0 0 1 8.008-10.249zm-14.334 15.68a25.382 25.382 0 0 0 1.629 4.438 115.263 115.263 0 0 1-12.356-2.317c3.332-.769 7.536-1.542 10.727-2.121zM31.1 87.377L22.065 120.5c-4.555-1.129-8.27-2.21-10.926-3.16l9.172-32.105A105.7 105.7 0 0 0 31.1 87.377zM7.583 129.789l1.612-5.646c10.622 3.7 32.6 8.384 57.563 11.293a53.271 53.271 0 0 0-4.014 6.435c-28.489-3.771-49.438-9.405-55.161-12.082zm102.21 82.711a46.042 46.042 0 1 1 46.042-46.042 46.1 46.1 0 0 1-46.042 46.042zm47.049-70.635a52.536 52.536 0 0 0-4.014-6.431c24.967-2.909 46.941-7.59 57.563-11.293l1.609 5.648c-5.72 2.681-26.672 8.311-55.158 12.078zm0 0"/><path data-name="Path 33" d="M77.918 38.959h7.083v7.083h-7.083zm0 0"/><path data-name="Path 34" d="M123.96 17.709h7.083v7.083h-7.083zm0 0"/><path data-name="Path 35" d="M106.251 53.126h7.083v7.083h-7.083zm0 0"/><path data-name="Path 36" d="M134.585 42.501h7.083v7.083h-7.083zm0 0"/><path data-name="Path 37" d="M99.168 28.334v-7.083a3.546 3.546 0 0 1-3.542-3.542h-7.083a10.639 10.639 0 0 0 10.625 10.625zm0 0"/><path data-name="Path 38" d="M166.46 53.126h-7.083a3.546 3.546 0 0 1-3.542 3.542v7.083a10.639 10.639 0 0 0 10.625-10.625zm0 0"/><path data-name="Path 39" d="M63.751 63.751v-7.083a3.546 3.546 0 0 1-3.542-3.542h-7.083a10.639 10.639 0 0 0 10.625 10.625zm0 0"/><path data-name="Path 40" d="M109.793 155.835a10.625 10.625 0 1 0-10.625-10.625 10.639 10.639 0 0 0 10.625 10.625zm0-14.167a3.542 3.542 0 1 1-3.542 3.542 3.546 3.546 0 0 1 3.542-3.542zm0 0"/><path data-name="Path 41" d="M94.765 162.061a10.636 10.636 0 1 0-7.511 3.106 10.542 10.542 0 0 0 7.511-3.106zm-10.015-5.012a3.543 3.543 0 1 1 5.012 0 3.557 3.557 0 0 1-5.012 0zm0 0"/><path data-name="Path 42" d="M124.821 147.035a10.623 10.623 0 1 0 15.026 0 10.541 10.541 0 0 0-15.026 0zm10.015 10.015a3.545 3.545 0 0 1-5.012 0 3.542 3.542 0 1 1 6.054-2.5 3.543 3.543 0 0 1-1.043 2.499zm0 0"/><path data-name="Path 43" d="M109.793 162.919c-13.9 0-24.792 7.777-24.792 17.709s10.891 17.709 24.792 17.709 24.792-7.777 24.792-17.709-10.892-17.709-24.792-17.709zm0 28.334c-9.6 0-17.709-4.866-17.709-10.625s8.111-10.625 17.709-10.625 17.708 4.866 17.708 10.625-8.11 10.625-17.708 10.625zm0 0"/></svg>