<svg xmlns="http://www.w3.org/2000/svg" width="139.875" height="219.586"><path data-name="Path 44" d="M125.692 28.554v-11.4A17.175 17.175 0 0 0 108.536 0H65.649a4.289 4.289 0 0 0 0 8.578h42.888a8.588 8.588 0 0 1 8.578 8.578v8.578H22.761v-8.579a8.588 8.588 0 0 1 8.578-8.578 4.289 4.289 0 1 0 0-8.578 17.175 17.175 0 0 0-17.156 17.156v11.4A69.03 69.03 0 0 0 0 70.656v135.933a13.011 13.011 0 0 0 13 13h113.878a13.011 13.011 0 0 0 13-13V70.656a69.026 69.026 0 0 0-14.186-42.102zM8.578 74.945H131.3V176.7H8.578zm110.7-40.635a60.453 60.453 0 0 1 11.866 32.057H8.727A60.465 60.465 0 0 1 20.591 34.31zm7.6 176.7H13a4.423 4.423 0 0 1-4.418-4.419v-21.317H131.3v21.315a4.424 4.424 0 0 1-4.422 4.419zm0 0"/><path data-name="Path 45" d="M69.936 116.3a34.108 34.108 0 0 0-34.069 34.071c0 5.756 1.449 9.933 4.433 12.771 3.557 3.384 8.442 4.146 14.145 4.146 2.243 0 4.612-.117 7.077-.241 2.714-.134 5.522-.275 8.415-.275s5.7.141 8.415.275c8.728.434 16.266.811 21.221-3.905 2.984-2.838 4.433-7.014 4.433-12.771a34.109 34.109 0 0 0-34.07-34.071zm23.726 40.628c-2.29 2.18-8.407 1.875-14.883 1.553-2.818-.141-5.733-.286-8.841-.286s-6.023.146-8.842.286c-6.475.322-12.592.627-14.882-1.553-1.173-1.117-1.767-3.322-1.767-6.559a25.492 25.492 0 1 1 50.983 0c-.001 3.237-.594 5.443-1.768 6.559zm0 0"/><path data-name="Path 46" d="M69.937 113.209c7.443 0 13.5-6.472 13.5-14.428s-6.056-14.428-13.5-14.428-13.5 6.472-13.5 14.428 6.057 14.428 13.5 14.428zm0-20.278c2.669 0 4.922 2.679 4.922 5.85s-2.253 5.85-4.922 5.85-4.922-2.679-4.922-5.85 2.254-5.85 4.922-5.85zm0 0"/><path data-name="Path 47" d="M43.716 122.339a12.983 12.983 0 0 0 6.2-8.631 15.163 15.163 0 0 0-10.054-17.413 12.916 12.916 0 0 0-16.78 9.687 14.892 14.892 0 0 0 1.726 10.613 14.606 14.606 0 0 0 12.5 7.45 12.741 12.741 0 0 0 6.408-1.706zM32.24 112.306a6.329 6.329 0 0 1-.771-4.5 4.5 4.5 0 0 1 2.109-3.024 4.253 4.253 0 0 1 2.138-.561 5.053 5.053 0 0 1 1.535.246 6.59 6.59 0 0 1 4.285 7.423 4.5 4.5 0 0 1-2.109 3.024c-2.35 1.354-5.575.186-7.187-2.608zm0 0"/><path data-name="Path 48" d="M116.788 105.984a12.913 12.913 0 0 0-16.778-9.688 15.163 15.163 0 0 0-10.054 17.413 12.99 12.99 0 0 0 6.2 8.633 12.756 12.756 0 0 0 6.408 1.717 13.68 13.68 0 0 0 4.168-.662 15.159 15.159 0 0 0 10.052-17.413zm-9.152 6.323a6.332 6.332 0 0 1-3.513 2.92 4.346 4.346 0 0 1-5.783-3.339 6.588 6.588 0 0 1 4.284-7.422 5.024 5.024 0 0 1 1.536-.248 4.253 4.253 0 0 1 2.138.561 4.518 4.518 0 0 1 2.109 3.026 6.335 6.335 0 0 1-.771 4.501zm0 0"/><path data-name="Path 49" d="M48.495 8.578a4.289 4.289 0 0 0 0-8.578 4.289 4.289 0 1 0 0 8.578zm0 0"/><path data-name="Path 50" d="M75.415 193.853a4.289 4.289 0 1 0 4.292 4.289 4.287 4.287 0 0 0-4.295-4.289zm0 0"/><path data-name="Path 51" d="M118.3 193.853H92.569a4.289 4.289 0 0 0 0 8.578H118.3a4.289 4.289 0 0 0 0-8.578zm0 0"/></svg>