<svg xmlns="http://www.w3.org/2000/svg" width="241" height="237.803"><path data-name="Path 276" d="M236.806 61.776a4.194 4.194 0 0 0-4.194 4.194v59.892a2.5 2.5 0 0 1-2.5 2.5h-115.2a2.5 2.5 0 0 1-2.5-2.5V65.97a4.194 4.194 0 0 0-8.388 0v59.892a10.9 10.9 0 0 0 10.885 10.886h53.408v12.365h-1.468a14.506 14.506 0 0 0-14.489 14.489v59.711a14.506 14.506 0 0 0 14.489 14.489h11.325a14.506 14.506 0 0 0 14.489-14.489v-59.711a14.505 14.505 0 0 0-14.489-14.489h-1.469v-12.365h53.408a10.9 10.9 0 0 0 10.885-10.886V65.97a4.194 4.194 0 0 0-4.192-4.194zm-52.53 101.826v59.711a6.108 6.108 0 0 1-6.1 6.1H166.85a6.109 6.109 0 0 1-6.1-6.1v-59.711a6.108 6.108 0 0 1 6.1-6.1h11.325a6.108 6.108 0 0 1 6.102 6.1z"/><path data-name="Path 277" d="M145.222 105.966a4.194 4.194 0 0 0 4.194-4.194v-34.8a4.194 4.194 0 0 0-8.388 0v34.8a4.194 4.194 0 0 0 4.194 4.194z"/><path data-name="Path 278" d="M127.002 105.966a4.194 4.194 0 0 0 4.194-4.194v-34.8a4.194 4.194 0 0 0-8.388 0v34.8a4.194 4.194 0 0 0 4.194 4.194z"/><path data-name="Path 279" d="M181.655 105.966a4.194 4.194 0 0 0 4.194-4.194v-34.8a4.194 4.194 0 0 0-8.388 0v34.8a4.194 4.194 0 0 0 4.194 4.194z"/><path data-name="Path 280" d="M163.439 105.966a4.194 4.194 0 0 0 4.194-4.194v-34.8a4.194 4.194 0 1 0-8.388 0v34.8a4.194 4.194 0 0 0 4.194 4.194z"/><path data-name="Path 281" d="M218.089 105.966a4.194 4.194 0 0 0 4.194-4.194v-34.8a4.194 4.194 0 0 0-8.388 0v34.8a4.194 4.194 0 0 0 4.194 4.194z"/><path data-name="Path 282" d="M199.872 105.966a4.194 4.194 0 0 0 4.194-4.194v-34.8a4.194 4.194 0 0 0-8.388 0v34.8a4.194 4.194 0 0 0 4.194 4.194z"/><path data-name="Path 283" d="M114.252 168.711l-42.4-80.61L84.444 60.67c.286.008.571.017.856.017A30.349 30.349 0 1 0 57.81 17.46 30.318 30.318 0 0 0 30.382 0a30.639 30.639 0 0 0-4.738.371 30.341 30.341 0 0 0 4.673 60.315c.284 0 .569-.009.854-.017l12.576 27.473L1.368 168.71a4.196 4.196 0 0 0-.162.346A15.69 15.69 0 0 0 9.69 189.56q.146.061.3.11l9.675 3.182a4.189 4.189 0 0 0 5.122-2.234l32.664-71.143 33.407 71.176a4.19 4.19 0 0 0 5.107 2.2l9.674-3.182c.1-.033.2-.07.3-.11a15.689 15.689 0 0 0 8.484-20.5c-.058-.12-.113-.235-.171-.348zM63.584 26.939A21.828 21.828 0 0 1 85.237 8.387a22.2 22.2 0 0 1 3.438.27A21.954 21.954 0 0 1 85.3 52.3a22.253 22.253 0 0 1-3.434-.269 21.979 21.979 0 0 1-18.282-25.092zM57.809 61.41l-5.4-10.267a30.6 30.6 0 0 0 5.4-7.923 30.6 30.6 0 0 0 5.4 7.923zM8.663 33.747A21.951 21.951 0 0 1 26.945 8.66a22.255 22.255 0 0 1 3.437-.27 21.954 21.954 0 0 1 3.372 43.64 22.236 22.236 0 0 1-3.436.269A21.829 21.829 0 0 1 8.663 33.747zm31.06 25.45a30.053 30.053 0 0 0 6.016-2.718l7.331 13.939-4.39 8.347zm-21 124.516l-5.95-1.953a7.3 7.3 0 0 1-3.883-9.33L69.88 56.48a30.09 30.09 0 0 0 6.012 2.716zm87.946-5.856a7.252 7.252 0 0 1-3.822 3.9l-5.979 1.966-34.84-74.228 5.406-11.773 39.3 74.706a7.249 7.249 0 0 1-.066 5.432z"/></svg>