<svg xmlns="http://www.w3.org/2000/svg" width="42" height="50" viewBox="91 80 106 128"><path d="M196.7 114.2v-.1c-.2-18.6-23.8-33.6-52.7-33.6-28.9 0-52.5 15.1-52.7 33.6v.4l17.8 87.5s.8 3 16.5 4.7c8.9.9 18 .9 18.4.9s9.5 0 18.4-.9c15.7-1.7 16.5-4.6 16.5-4.7l17.8-87.5v-.3zm-72.2 64.6c-2.9 0-5.2-2.3-5.2-5.2 0-2.9 2.3-5.2 5.2-5.2 2.9 0 5.2 2.3 5.2 5.2 0 2.9-2.4 5.2-5.2 5.2zm1.8-22.7l6-12 6 12h-12zm10.3 7.8l6.2-2.7 6.2 2.7v8.8l-6.2 2.7-6.2-2.7v-8.8zm8.1 28.1c-2.9 0-5.2-2.3-5.2-5.2 0-2.9 2.3-5.2 5.2-5.2 2.9 0 5.2 2.3 5.2 5.2 0 2.8-2.3 5.2-5.2 5.2zm4.1-41.9a6.7 6.7 0 1 1 6.7 6.7c-3.8-.1-6.7-3-6.7-6.7zm9.4 26.3l5.3-10.6 5.3 10.6h-10.6zm32.3-57.2c-1.8 3.3-18.2 8.8-46.5 8.8-28.2 0-44.7-5.5-46.4-8.8v-.1c1.7-3.3 18.1-8.8 46.5-8.8 28.3.1 44.7 5.6 46.4 8.9m-16.7-16.1c-14.2-2.5-29.1-2.5-29.8-2.5-.6 0-15.6 0-29.8 2.5-9.2 1.6-14.7 3.7-18 5.6 4.4-13.8 24.1-24.2 47.8-24.2 23.7 0 43.4 10.4 47.8 24.2-3.3-2-8.8-4-18-5.6z" fill="#f80000"/></svg>