<svg xmlns="http://www.w3.org/2000/svg" version="1.1" id="Icons" x="0" y="0" width="46" height="50" viewBox="87 81 114 125" xml:space="preserve"><style>.st0{fill:#5f5f5f}</style><circle class="st0" cx="173" cy="171.9" r="3.8"/><path class="st0" d="M194.6 81.8H93.4c-3.5 0-6.3 2.8-6.3 6.3v111.8c0 3.5 2.8 6.3 6.3 6.3h101.1c3.5 0 6.3-2.8 6.3-6.3V88.1c.1-3.4-2.8-6.3-6.2-6.3zm-62.2 32.7v-7.4c0-1.5 1.2-2.7 2.7-2.7h17.8c1.5 0 2.7 1.2 2.7 2.7v18.1c0 1.5-1.2 2.7-2.7 2.7h-17.8c-1.5 0-2.7-1.2-2.7-2.7v-10.7zm0 28.1v-7.4c0-1.5 1.2-2.7 2.7-2.7h17.8c1.5 0 2.7 1.2 2.7 2.7v18.1c0 1.5-1.2 2.7-2.7 2.7h-17.8c-1.5 0-2.7-1.2-2.7-2.7v-10.7zm-27.3-28.1v-7.4c0-1.5 1.2-2.7 2.7-2.7h17.8c1.5 0 2.7 1.2 2.7 2.7v18.1c0 1.5-1.2 2.7-2.7 2.7h-17.8c-1.5 0-2.7-1.2-2.7-2.7v-10.7zm0 28.1v-7.4c0-1.5 1.2-2.7 2.7-2.7h17.8c1.5 0 2.7 1.2 2.7 2.7v18.1c0 1.5-1.2 2.7-2.7 2.7h-17.8c-1.5 0-2.7-1.2-2.7-2.7v-10.7zm77.8 37.6c0 1.9-1.6 3.5-3.5 3.5h-70.7c-1.9 0-3.5-1.6-3.5-3.5v-19.6H183v19.6zm0-38.4v11.5c0 1.5-1.2 2.7-2.7 2.7h-17.8c-1.5 0-2.7-1.2-2.7-2.7v-18.1c0-1.5 1.2-2.7 2.7-2.7h17.8c1.5 0 2.7 1.2 2.7 2.7v6.6zm0-28v11.5c0 1.5-1.2 2.7-2.7 2.7h-17.8c-1.5 0-2.7-1.2-2.7-2.7v-18.1c0-1.5 1.2-2.7 2.7-2.7h17.8c1.5 0 2.7 1.2 2.7 2.7v6.6z"/></svg>