<svg xmlns="http://www.w3.org/2000/svg" width="595.994" height="681.419" viewBox="0 0 157.69 180.292"><g stroke-width=".265"><path d="M0 .001L79.044 0v90.248z"/><path d="M79.044 0l45.816 52.483-2.176 2.527H78.961z" fill="#999"/><path d="M106.788 31.71l8.667-7.37h27.371v7.72L124.86 52.484z" fill="#666"/><path d="M142.826 24.34l6.702.036-6.702 7.685z" fill="#333"/><path d="M142.826 32.06l-20.142 22.95h20.123z" fill="#e6e6e6"/><path d="M142.807 55.01H78.961v53.256z" fill="#b3b3b3"/><path d="M79.044 90.248v18.043h-9.867v-9.032l-10.732 8.766V92.139l-19.34 15.886v-8.873l-10.997 8.873H13.976l46.966-38.412z" fill="#666"/><path d="M28.108 108.025l10.998-8.873v8.873l19.339-15.886v15.886l10.732-8.766v9.032zm72.309-17.745l33.312-27.574 23.961 27.52z" fill="#999"/><path d="M87.962 100.575l12.455-10.295h57.226v90.012z"/></g></svg>