<svg xmlns="http://www.w3.org/2000/svg" version="1.1" id="STREAMING" x="0" y="0" width="50" height="30" viewBox="-200 250 190 114" xml:space="preserve"><style>.st0{fill:#f80000}</style><path class="st0" d="M-29 348.4c0 8.5-2.5 15.6-5.2 15.6-.1 0 0 0 0 0h-145c-2.5-.7-4.4-7.5-4.4-15.6s2-14.8 4.4-15.5h145.1c2.7.1 5.1 7 5.1 15.5zm-148.6-12.5c-1.7 0-3.1 5.6-3.1 12.6s1.4 12.6 3.1 12.6 3.1-5.6 3.1-12.6-1.4-12.6-3.1-12.6zm101.9 5.8l-6.7 2.9v9.5l6.7 2.9 6.7-2.9v-9.5l-6.7-2.9zm-53.3-.8c0 .1 0 .4-.1.7-.1.5-.4.9-.6 1.2-.4.4-1 .7-1.6.9-.4.1-1.1.2-2.2.2v2.3h4v11.6h3.4v-16.9h-2.9zm31.5 2.1c-.9-1.5-2.4-2.3-4.5-2.3s-3.7.8-4.5 2.3c-.9 1.5-1.3 3.7-1.3 6.4s.4 4.9 1.3 6.4 2.4 2.3 4.5 2.3 3.7-.8 4.5-2.3c.9-1.5 1.3-3.6 1.3-6.4s-.5-4.9-1.3-6.4zm53.1 0c-.9-1.5-2.4-2.3-4.5-2.3s-3.7.8-4.5 2.3c-.9 1.5-1.3 3.7-1.3 6.4s.4 4.9 1.3 6.4 2.4 2.3 4.5 2.3 3.7-.8 4.5-2.3c.9-1.5 1.3-3.6 1.3-6.4s-.4-4.9-1.3-6.4zm-107.2-2.1c0 .1 0 .4-.1.7-.1.5-.4.9-.6 1.2-.4.4-1 .7-1.6.9-.4.1-1.1.2-2.2.2v2.3h4v11.6h3.4v-16.9h-2.9z"/><path class="st0" d="M-104 353.9c.3 1 1 1.5 2 1.5s1.6-.5 1.9-1.5.5-2.5.5-4.4c0-2-.2-3.5-.5-4.5s-1-1.5-1.9-1.5-1.6.5-2 1.5-.5 2.5-.5 4.5c0 1.9.2 3.4.5 4.4zm53.1 0c.3 1 1 1.5 2 1.5s1.6-.5 1.9-1.5c.3-1 .5-2.5.5-4.4 0-2-.2-3.5-.5-4.5s-1-1.5-1.9-1.5c-1 0-1.6.5-2 1.5s-.5 2.5-.5 4.5c.1 1.9.2 3.4.5 4.4zm21.9-46.8c0 8.5-2.5 15.6-5.2 15.6-.1 0 0 0 0 0h-145c-2.5-.7-4.4-7.5-4.4-15.6s2-14.8 4.4-15.5h145.1c2.7 0 5.1 7 5.1 15.5zm-148.6-12.6c-1.7 0-3.1 5.6-3.1 12.6s1.4 12.6 3.1 12.6 3.1-5.6 3.1-12.6-1.4-12.6-3.1-12.6zm66 18.2l6.7 2.9 6.7-2.9v-9.5l-6.7-2.9-6.7 2.9v9.5zm-47.5 0l6.7 2.9 6.7-2.9v-9.5l-6.7-2.9-6.7 2.9v9.5zm85.7-11.1c-.9-1.5-2.4-2.3-4.5-2.3s-3.7.8-4.5 2.3c-.9 1.5-1.3 3.7-1.3 6.4s.4 4.9 1.3 6.4 2.4 2.3 4.5 2.3 3.7-.8 4.5-2.3c.9-1.5 1.3-3.6 1.3-6.4s-.4-4.9-1.3-6.4zm23.4-2.2c0 .1 0 .4-.1.7-.1.5-.4.9-.6 1.2-.4.4-1 .7-1.6.9-.4.1-1.1.2-2.2.2v2.3h4v11.6h3.4v-16.9H-50zm-79 0c0 .1 0 .4-.1.7-.1.5-.4.9-.6 1.2-.4.4-1 .7-1.6.9-.4.1-1.1.2-2.2.2v2.3h4v11.6h3.4v-16.9h-2.9z"/><path class="st0" d="M-79.9 312.4c.3 1 1 1.5 2 1.5s1.6-.5 1.9-1.5.5-2.5.5-4.4c0-2-.2-3.5-.5-4.5s-1-1.5-1.9-1.5-1.6.5-2 1.5-.5 2.5-.5 4.5c.1 1.9.2 3.4.5 4.4zm56.9 27.4v14.3l12.7-7.2zm-177 0v14.3l12.7-7.2zm177-40.4v14.3l12.7-7.2zm-177 0v14.3l12.7-7.2zm177-40.5v14.3l12.7-7.1zm-177 0v14.3l12.7-7.1zm43.3 12.4c.3 1 1 1.5 2 1.5s1.6-.5 1.9-1.5.5-2.5.5-4.4c0-2-.2-3.5-.5-4.5s-1-1.5-1.9-1.5c-1 0-1.6.5-2 1.5-.3 1-.5 2.5-.5 4.5.1 1.9.2 3.3.5 4.4z"/><path class="st0" d="M-29 265.8c0 8.5-2.5 15.6-5.2 15.6-.1 0 0 0 0 0h-145c-2.5-.7-4.4-7.5-4.4-15.6s2-14.8 4.4-15.5h145.1c2.7 0 5.1 7 5.1 15.5zm-22.6-7.1l-6.7 2.9v9.5l6.7 2.9 6.7-2.9v-9.5l-6.7-2.9zm-76.2.3l-6.7 2.9v9.5l6.7 2.9 6.7-2.9v-9.5l-6.7-2.9zm-22.4 1.4c-.9-1.5-2.4-2.3-4.5-2.3s-3.7.8-4.5 2.3c-.9 1.5-1.3 3.7-1.3 6.4s.4 4.9 1.3 6.4 2.4 2.3 4.5 2.3 3.7-.8 4.5-2.3c.9-1.5 1.3-3.6 1.3-6.4s-.4-4.9-1.3-6.4zm49.8-2.2c0 .1 0 .4-.1.7-.1.5-.4.9-.6 1.2-.4.4-1 .7-1.6.9-.4.1-1.1.2-2.2.2v2.3h4v11.6h3.4v-16.9h-2.9zm21.9 0c0 .1 0 .4-.1.7-.1.5-.4.9-.6 1.2-.4.4-1 .7-1.6.9-.4.1-1.1.2-2.2.2v2.3h4v11.6h3.4v-16.9h-2.9zm-99.1-5c-1.7 0-3.1 5.6-3.1 12.6s1.4 12.6 3.1 12.6 3.1-5.6 3.1-12.6c0-6.9-1.4-12.6-3.1-12.6z"/></svg>